<svg width="56" height="58" viewBox="0 0 56 58" fill="none" xmlns="http://www.w3.org/2000/svg" xmlns:xlink="http://www.w3.org/1999/xlink">
<g opacity="0.4">
<path d="M44.007,24.37L44.007,41.137C43.937,47.82 42.108,49.508 35.143,49.508L13.006,49.508C5.924,49.508 4.142,47.749 4.142,40.761L4.142,24.37C4.142,18.038 5.619,15.998 11.177,15.669C11.74,15.646 12.349,15.623 13.006,15.623L35.143,15.623C42.225,15.623 44.007,17.381 44.007,24.37Z" fill="#80CC28"/>
</g>
<path d="M51.042,16.045L51.042,32.436C51.042,38.768 49.565,40.808 44.007,41.136L44.007,24.369C44.007,17.381 42.225,15.622 35.143,15.622L13.006,15.622C12.349,15.622 11.74,15.646 11.177,15.669C11.247,8.986 13.076,7.298 20.041,7.298L42.178,7.298C49.26,7.298 51.042,9.056 51.042,16.045Z" fill="#80CC28"/>
<path d="M15.773,43.786L11.74,43.786C10.778,43.786 9.981,42.989 9.981,42.028C9.981,41.066 10.778,40.269 11.74,40.269L15.773,40.269C16.735,40.269 17.532,41.066 17.532,42.028C17.532,42.989 16.758,43.786 15.773,43.786Z" fill="#80CC28"/>
<path d="M28.882,43.786L20.815,43.786C19.853,43.786 19.056,42.989 19.056,42.028C19.056,41.066 19.853,40.269 20.815,40.269L28.882,40.269C29.843,40.269 30.641,41.066 30.641,42.028C30.641,42.989 29.867,43.786 28.882,43.786Z" fill="#80CC28"/>
<path d="M44.007,28.075L4.142,28.075L4.142,31.592L44.007,31.592L44.007,28.075Z" fill="#80CC28"/>
</svg>
