<svg width="252" height="186" viewBox="0 0 252 186" fill="none" xmlns="http://www.w3.org/2000/svg" xmlns:xlink="http://www.w3.org/1999/xlink">
<path d="M28.228,176.715C33.537,178.911 39.268,179.598 44.886,178.712L46.983,178.299C47.676,178.116 48.368,177.886 49.081,177.656C50.457,177.238 51.797,176.692 53.088,176.027C55.58,174.775 57.943,173.236 60.138,171.436C68.697,164.367 74.215,155.369 82.439,150.618C86.21,148.084 90.611,146.904 95.026,147.243C99.259,147.964 103.079,150.427 105.705,154.129C108.594,158.159 111.163,162.451 113.383,166.96C115.764,171.932 118.836,176.47 122.488,180.411C124.671,182.624 127.311,184.225 130.183,185.076C133.055,185.928 136.073,186.005 138.978,185.3C141.717,184.607 144.314,183.361 146.636,181.627C148.73,180.085 150.684,178.325 152.468,176.371C155.993,172.676 158.762,168.819 162.035,165.652C165.201,162.441 168.726,159.68 172.524,157.435C176.109,155.25 180.064,153.89 184.147,153.441C188.045,153.105 191.959,153.831 195.539,155.553C202.714,158.904 208.672,164.344 214.966,168.567C218.078,170.759 221.452,172.466 224.994,173.64C228.456,174.781 232.142,174.837 235.63,173.8C238.726,172.925 241.546,171.148 243.792,168.659C245.606,166.543 247.03,164.065 247.988,161.36C249.42,157.22 250.242,152.858 250.422,148.437C250.554,145.698 250.512,142.952 250.296,140.22C250.128,138.361 249.938,137.374 249.812,137.396C249.688,137.419 249.646,141.321 248.868,148.299C248.408,152.501 247.39,156.607 245.848,160.487C244.86,162.861 243.472,165.011 241.756,166.823C239.8,168.839 237.376,170.236 234.75,170.862C231.824,171.623 228.764,171.464 225.918,170.403C222.742,169.233 219.734,167.58 216.98,165.491C214.044,163.38 211.084,160.901 207.896,158.491C204.574,155.818 201.018,153.511 197.28,151.605C196.252,151.168 195.182,150.686 194.154,150.273C193.126,149.86 191.951,149.608 190.818,149.309C188.476,148.818 186.087,148.648 183.706,148.804C178.918,149.199 174.254,150.668 170.007,153.119C165.803,155.512 161.891,158.473 158.363,161.934C156.601,163.609 154.902,165.468 153.307,167.282C151.713,169.095 150.139,170.885 148.503,172.561C145.552,175.965 141.81,178.424 137.678,179.676C135.722,180.114 133.697,180.02 131.782,179.401C129.854,178.772 128.091,177.647 126.642,176.119C123.502,172.551 120.877,168.479 118.859,164.045C116.526,159.204 113.809,154.595 110.74,150.273C108.964,147.86 106.837,145.782 104.446,144.122C101.897,142.334 99.029,141.16 96.033,140.679C93.004,140.247 89.927,140.457 86.97,141.299C84.197,142.071 81.524,143.228 79.019,144.742C74.387,147.609 70.149,151.179 66.431,155.346C63.075,159.105 59.501,162.625 55.732,165.881C53.942,167.347 52.015,168.601 49.984,169.623C49.004,170.119 47.986,170.518 46.942,170.816C46.417,170.977 45.914,171.161 45.389,171.298L43.795,171.574C39.475,172.213 35.077,171.636 31.018,169.898C23.055,166.672 16.483,160.302 12.598,152.041C9.277,144.191 7.909,135.521 8.633,126.907C9.258,118.795 10.721,110.786 12.997,103.035C16.691,89.945 21.473,77.252 27.284,65.117C31.525,56.247 36.268,47.677 41.487,39.455C47.355,30.397 53.657,21.685 60.368,13.357C62.316,11.26 63.983,8.872 65.319,6.265C67.03,7.407 68.265,9.235 68.76,11.36C69.62,14.023 70.417,16.823 71.11,19.371C72.515,24.558 73.564,29.287 74.383,33.304C76.019,41.314 76.858,46.387 77.76,46.364C78.662,46.341 79.334,41.131 78.809,32.707C78.449,27.759 77.747,22.849 76.711,18.017C76.145,15.239 75.474,12.485 74.613,9.432C74.127,7.703 73.421,6.057 72.515,4.543C71.318,2.618 69.613,1.137 67.627,0.297C65.681,-0.437 63.608,-0.681 61.564,-0.415C59.956,-0.221 58.359,0.07 56.781,0.457C53.823,1.146 50.991,1.926 48.389,2.753C43.707,4.222 39.135,6.079 34.711,8.307C27.2,12.118 23.193,15.515 23.591,16.226C23.99,16.938 28.773,15.079 36.431,12.439C40.27,11.131 44.823,9.685 49.984,8.376C52.564,7.711 55.27,7.091 58.103,6.54C58.795,6.379 59.466,6.265 60.201,6.15C59.235,6.999 58.103,8.147 56.466,9.662C48.862,17.543 41.944,26.18 35.801,35.461C22.524,55.27 12.376,77.375 5.78,100.855C3.354,109.141 1.812,117.706 1.185,126.379C0.398,136.237 2.02,146.147 5.885,155.093C10.651,165.158 18.724,172.875 28.48,176.692Z" transform="rotate(360 125.744 92.629)" fill="#FF698D"/>
</svg>
