<svg width="104" height="212" viewBox="0 0 104 212" fill="none" xmlns="http://www.w3.org/2000/svg" xmlns:xlink="http://www.w3.org/1999/xlink">
<g opacity="0.2">
<path d="M43.674,117.806C49.003,118.546 54.435,118.575 59.775,117.892C65.074,117.145 70.226,115.772 75.082,113.813C79.865,111.967 84.37,109.636 88.5,106.87C92.642,104.122 96.186,100.772 98.969,96.976C100.363,95.056 101.424,92.975 102.12,90.796C102.878,88.54 103.044,86.17 102.608,83.853C102.088,81.271 100.57,78.913 98.298,77.153C95.919,75.403 93.008,74.266 89.902,73.872C88.458,73.66 86.997,73.55 85.532,73.542C84.131,73.572 82.733,73.665 81.344,73.82C80.007,73.966 78.683,74.186 77.38,74.479L75.347,74.879L73.476,75.382C68.743,76.736 64.174,78.48 59.836,80.589C55.551,82.606 51.622,85.131 48.167,88.088C44.892,90.896 42.112,94.094 39.913,97.583L39.1,98.833L38.429,100.135C37.982,100.985 37.514,101.871 37.108,102.704C36.325,104.409 35.646,106.147 35.075,107.911C34.749,108.935 34.485,109.977 34.221,111.018C33.143,110.671 32.188,110.289 31.049,109.89C26.927,108.278 23.077,106.199 19.604,103.711C16.315,101.292 13.477,98.459 11.188,95.309C7.032,89.179 4.558,82.325 3.951,75.26C3.388,68.641 3.908,61.987 5.496,55.489C6.927,49.535 8.919,43.69 11.452,38.01C13.611,33.01 16.157,28.139 19.076,23.429C23.312,16.504 28.847,10.219 35.461,4.821C40.299,1.019 43.593,-0.647 43.288,-0.855C42.401,-0.641 41.562,-0.3 40.807,0.151C38.569,1.277 36.435,2.548 34.424,3.953C27.281,9.122 21.271,15.334 16.677,22.3C13.485,27.024 10.679,31.931 8.281,36.986C5.48,42.75 3.236,48.701 1.572,54.778C-0.292,61.541 -1.024,68.495 -0.603,75.434C-0.153,83.092 2.358,90.558 6.736,97.253C9.217,100.829 12.33,104.055 15.965,106.818C19.799,109.667 24.074,112.05 28.671,113.9C30.244,114.556 31.859,115.136 33.509,115.636C32.903,119.693 32.726,123.789 32.981,127.873C33.766,138.735 36.424,149.439 40.868,159.639C44.029,167.049 47.883,174.23 52.395,181.111C57.325,188.768 63.207,195.95 69.939,202.531L72.135,204.511L69.207,203.781C66.036,203.069 62.926,202.531 59.957,202.045C54.693,201.249 49.365,200.795 44.019,200.691C34.871,200.517 29.321,201.455 29.362,202.081C29.403,202.705 34.932,203.069 43.593,204.059C47.943,204.597 53.086,205.275 58.697,206.367C61.523,206.905 64.45,207.531 67.439,208.259C68.943,208.641 70.468,209.023 71.992,209.441C72.765,209.649 73.436,209.875 74.595,210.117C76.101,210.469 77.7,210.389 79.148,209.891C79.916,209.609 80.608,209.197 81.181,208.677C81.623,208.263 81.999,207.803 82.299,207.305C82.721,206.561 83.048,205.781 83.275,204.979C83.682,203.711 84.048,202.445 84.434,201.213C85.166,198.73 85.837,196.334 86.467,194.043C87.646,189.46 88.5,185.364 89.15,181.788C90.37,174.845 90.533,170.384 89.719,170.262C88.906,170.141 87.219,174.341 84.901,181.128L80.978,193.053C80.246,195.299 79.474,197.642 78.66,200.085C78.254,201.299 77.847,202.549 77.441,203.799C77.432,203.833 77.432,203.869 77.441,203.903C76.77,203.001 75.774,201.751 74.269,200.015C68.49,193.21 63.241,186.09 58.555,178.698C54.403,171.983 50.823,165.022 47.841,157.868C43.704,148.147 41.219,137.97 40.462,127.648C40.265,124.231 40.38,120.807 40.807,117.406C41.763,117.58 42.718,117.753 43.674,117.892L43.674,117.806ZM42.515,109.335C42.995,107.765 43.572,106.218 44.243,104.7C44.589,103.954 44.995,103.207 45.382,102.444L45.971,101.315L46.683,100.222C48.532,97.205 50.904,94.443 53.716,92.029C56.678,89.459 60.053,87.261 63.739,85.502C67.61,83.57 71.696,81.971 75.936,80.728L77.542,80.277L79.148,79.93C80.206,79.695 81.278,79.509 82.36,79.374C83.438,79.201 84.393,79.218 85.552,79.131C86.56,79.129 87.566,79.199 88.561,79.34C90.296,79.443 91.943,80.034 93.245,81.02C94.546,82.006 95.43,83.331 95.757,84.79C96.175,88.202 95.19,91.633 92.972,94.493C90.627,97.757 87.635,100.647 84.129,103.034C80.443,105.554 76.416,107.687 72.135,109.387C67.884,111.174 63.361,112.441 58.697,113.154C54.03,113.778 49.277,113.778 44.609,113.154C43.593,113.032 42.576,112.876 41.58,112.702C41.844,111.557 42.129,110.428 42.474,109.231Z" transform="rotate(-68.643 51.064 104.738)" fill="#5B1727"/>
</g>
</svg>
