<svg width="56" height="58" viewBox="0 0 56 58" fill="none" xmlns="http://www.w3.org/2000/svg" xmlns:xlink="http://www.w3.org/1999/xlink">
<g opacity="0.4">
<path d="M50.866,18.577L50.866,35.813C50.186,35.485 49.436,35.25 48.592,35.11L47.865,34.992L47.255,33.726C45.965,31.1 43.855,29.575 41.486,29.575C39.118,29.575 37.007,31.1 35.718,33.726L35.084,34.992L34.381,35.11C31.59,35.579 29.573,37.126 28.847,39.331C28.143,41.558 28.87,43.997 30.863,46.014L31.59,46.741L31.52,47.022C31.051,49.109 31.238,50.704 31.684,51.853L17.59,51.853C9.055,51.853 3.966,46.764 3.966,38.229L3.966,18.577C3.966,10.041 9.055,4.953 17.59,4.953L37.242,4.953C45.778,4.953 50.866,10.041 50.866,18.577Z" fill="#FB3F6C"/>
</g>
<path d="M44.113,35.297L44.863,36.822C45.238,37.572 46.2,38.276 46.997,38.416L48.006,38.58C51.078,39.096 51.781,41.348 49.6,43.552L48.662,44.49C48.029,45.123 47.701,46.342 47.888,47.234L48.006,47.796C48.85,51.501 46.88,52.932 43.667,50.986L42.987,50.563C42.166,50.071 40.806,50.071 39.985,50.563L39.305,50.986C36.069,52.932 34.123,51.501 34.967,47.796L35.084,47.234C35.272,46.366 34.944,45.123 34.311,44.49L33.373,43.552C31.192,41.324 31.895,39.096 34.967,38.58L35.976,38.416C36.796,38.276 37.734,37.572 38.109,36.822L38.86,35.297C40.314,32.366 42.659,32.366 44.113,35.297Z" fill="#FB3F6C"/>
<path d="M37.1,18.829C37.868,19.424 38.007,20.529 37.412,21.296L31.985,28.298C30.59,30.062 28.018,30.384 26.223,28.997L26.211,28.988L21.928,25.617C21.663,25.416 21.294,25.466 21.093,25.726C21.093,25.726 21.093,25.725 21.093,25.726L15.513,32.97C14.92,33.74 13.816,33.883 13.046,33.29C12.277,32.698 12.134,31.593 12.726,30.824L18.309,23.576C19.702,21.773 22.284,21.447 24.083,22.837L24.095,22.847L28.378,26.217C28.646,26.42 29.023,26.368 29.222,26.121L34.632,19.141C35.227,18.374 36.332,18.234 37.1,18.829Z" clip-rule="evenodd" fill-rule="evenodd" fill="#FB3F6C"/>
</svg>
