<svg width="226" height="78" viewBox="0 0 226 78" fill="none" xmlns="http://www.w3.org/2000/svg" xmlns:xlink="http://www.w3.org/1999/xlink">
<path d="M4.853,38.208C10.415,32.651 16.64,27.892 23.367,24.052C27.62,21.509 32.445,18.891 37.664,16.272C43.236,13.436 48.986,11.014 54.874,9.024C58.047,7.964 61.283,7.127 64.56,6.519C67.954,5.844 71.4,5.495 74.853,5.475C78.392,5.412 81.925,5.794 85.379,6.614C88.88,7.389 92.265,8.665 95.441,10.409L95.959,10.712C95.816,10.864 95.637,10.997 95.477,11.149C89.428,16.917 85.308,24.615 83.735,33.085C82.981,37.389 83.06,41.812 83.968,46.083C84.915,50.558 86.927,54.7 89.811,58.113C91.281,59.962 93.018,61.551 94.958,62.819C97.123,64.258 99.567,65.153 102.107,65.438C104.579,65.649 107.065,65.303 109.402,64.423C111.739,63.544 113.876,62.15 115.671,60.334C118.922,57.041 120.983,52.643 121.497,47.905C121.991,43.568 121.675,39.17 120.568,34.963C119.512,30.816 117.861,26.867 115.671,23.255C112.928,18.754 109.484,14.782 105.484,11.509C106.475,10.906 107.501,10.374 108.558,9.915C114.774,7.163 121.489,5.912 128.216,6.253C134.491,6.526 140.691,7.805 146.606,10.048C151.78,11.979 156.713,14.572 161.296,17.771C165.131,20.585 168.72,23.761 172.018,27.259C177.232,32.675 181.87,38.682 185.85,45.172C188.553,49.503 190.943,54.044 192.999,58.759C194.625,62.554 195.68,65.362 196.448,67.563C197.145,69.461 197.556,70.732 197.913,71.7L196.716,70.808C193.303,68.265 190.175,66.026 187.495,64.205C182.133,60.58 178.559,58.512 178.112,59.157C177.666,59.802 180.346,62.725 185.1,67.089C187.477,69.29 190.354,71.814 193.607,74.565L194.84,75.609C195.366,76.064 195.928,76.471 196.52,76.823C196.903,77.043 197.303,77.227 197.717,77.374C198.242,77.561 198.79,77.669 199.344,77.696C200.484,77.752 201.61,77.419 202.56,76.748C203.718,75.812 204.702,74.654 205.456,73.332L207.44,70.429C218.162,54.11 225.9,40.238 224.648,39.46C223.398,38.682 213.676,51.263 202.936,67.582L201.542,69.746C201.414,68.639 201.216,67.542 200.952,66.463C200.226,63.228 199.27,60.056 198.092,56.975C196.203,51.882 193.876,46.985 191.14,42.345C187.102,35.364 182.303,28.912 176.844,23.122C173.265,19.297 169.358,15.835 165.174,12.781C160.129,9.215 154.684,6.333 148.965,4.204C142.374,1.702 135.461,0.287 128.467,0.01C120.683,-0.356 112.921,1.135 105.752,4.375C103.683,5.299 101.707,6.443 99.855,7.79C99.158,7.373 98.461,6.955 97.746,6.595C94.16,4.695 90.349,3.316 86.416,2.496C82.606,1.684 78.719,1.347 74.836,1.49C71.129,1.59 67.438,2.048 63.809,2.857C60.4,3.562 57.039,4.507 53.748,5.684C47.759,7.85 41.929,10.482 36.306,13.559C31.051,16.38 26.286,19.169 22.009,21.927C15.292,26.095 9.192,31.293 3.905,37.354C2.525,38.982 1.264,40.72 0.135,42.553C-0.598,43.825 -0.938,44.451 -0.848,44.565C-0.759,44.679 1.082,42.155 4.888,38.208L4.853,38.208ZM99.98,15.741C100.427,15.305 100.909,14.906 101.392,14.508C105.294,17.629 108.62,21.489 111.203,25.893C113.082,29.114 114.486,32.62 115.367,36.292C116.263,39.886 116.482,43.632 116.01,47.316C115.58,50.82 114.013,54.054 111.578,56.463C110.396,57.66 108.989,58.58 107.45,59.162C105.91,59.744 104.272,59.975 102.643,59.84C99.386,59.225 96.462,57.344 94.44,54.565C92.185,51.827 90.629,48.521 89.919,44.963C89.239,41.426 89.239,37.779 89.919,34.242C90.581,30.686 91.788,27.269 93.493,24.128C95.183,20.966 97.364,18.131 99.944,15.741Z" transform="rotate(-66.912 111.959 38.829)" fill="#4F1F3C" fill-opacity="0.3"/>
</svg>
