<svg width="38" height="38" viewBox="0 0 38 38" fill="none" xmlns="http://www.w3.org/2000/svg" xmlns:xlink="http://www.w3.org/1999/xlink">
<path d="M18.857,37.435C28.959,37.435 37.148,29.245 37.148,19.144C37.148,9.042 28.959,0.852 18.857,0.852C8.755,0.852 0.565,9.042 0.565,19.144C0.565,29.245 8.755,37.435 18.857,37.435Z" fill="#FB3F6C"/>
<path d="M23.457,19.86L20.193,19.86L20.193,31.817L15.248,31.817L15.248,19.86L12.896,19.86L12.896,15.657L15.248,15.657L15.248,12.938C15.248,10.994 16.172,7.948 20.237,7.948L23.9,7.964L23.9,12.043L21.242,12.043C20.806,12.043 20.193,12.261 20.193,13.188L20.193,15.661L23.889,15.661L23.457,19.86Z" fill="#FFFFFF"/>
</svg>
