<svg width="54" height="34" viewBox="0 0 54 34" fill="none" xmlns="http://www.w3.org/2000/svg" xmlns:xlink="http://www.w3.org/1999/xlink">
<path d="M33.837,3.1C36.013,1.325 38.772,0.437 42.115,0.437C45.404,0.437 48.004,1.458 49.915,3.5C51.825,5.542 52.78,9.181 52.78,14.419C52.78,19.701 48.641,26.136 40.364,33.726L33.2,29.399C35.853,25.049 37.525,21.365 38.215,18.347C35.933,17.725 34.076,16.616 32.643,15.018C31.264,13.42 30.574,11.467 30.574,9.159C30.574,6.895 31.662,4.876 33.837,3.1ZM3.035,3.167C5.158,1.392 7.864,0.504 11.154,0.504C14.443,0.459 17.043,1.458 18.953,3.5C20.864,5.542 21.819,9.203 21.819,14.485C21.819,19.812 17.733,26.225 9.562,33.726L2.239,29.399C5.051,25.227 6.723,21.543 7.254,18.347C5.025,17.725 3.221,16.616 1.841,15.018C0.515,13.464 -0.148,11.622 -0.148,9.492C-0.148,9.403 -0.148,8.782 -0.148,7.628C-0.148,6.429 0.913,4.942 3.035,3.167Z" transform="rotate(360 26.316 17.082)" fill="#FB3F6C"/>
</svg>
