<svg width="38" height="38" viewBox="0 0 38 38" fill="none" xmlns="http://www.w3.org/2000/svg" xmlns:xlink="http://www.w3.org/1999/xlink">
<path d="M2.397,3.342C-0.478,6.328 0.11,9.5 0.11,19.137C0.11,27.139 -1.286,35.161 6.021,37.05C8.303,37.637 28.521,37.637 30.8,37.047C33.842,36.262 36.318,33.794 36.656,29.491C36.703,28.89 36.703,9.393 36.654,8.781C36.295,4.197 33.473,1.556 29.756,1.021C28.904,0.897 28.733,0.861 24.361,0.853C8.855,0.861 5.456,0.17 2.397,3.342L2.397,3.342Z" fill="#FB3F6C"/>
<path d="M18.395,5.637C12.861,5.637 7.605,5.144 5.598,10.296C4.768,12.424 4.889,15.188 4.889,19.145C4.889,22.617 4.778,25.881 5.598,27.992C7.601,33.147 12.899,32.653 18.392,32.653C23.692,32.653 29.157,33.205 31.189,27.992C32.019,25.843 31.897,23.12 31.897,19.145C31.897,13.868 32.189,10.461 29.629,7.903C27.038,5.312 23.534,5.637 18.389,5.637L18.395,5.637ZM17.185,8.071C28.73,8.053 30.199,6.769 29.388,24.599C29.1,30.905 24.299,30.213 18.397,30.213C7.636,30.213 7.326,29.905 7.326,19.139C7.326,8.248 8.18,8.077 17.185,8.068L17.185,8.071ZM25.605,10.313C24.71,10.313 23.985,11.039 23.985,11.934C23.985,12.828 24.71,13.554 25.605,13.554C26.5,13.554 27.226,12.828 27.226,11.934C27.226,11.039 26.5,10.313 25.605,10.313L25.605,10.313ZM18.395,12.208C14.565,12.208 11.46,15.314 11.46,19.145C11.46,22.975 14.565,26.08 18.395,26.08C22.226,26.08 25.329,22.975 25.329,19.145C25.329,15.314 22.226,12.208 18.395,12.208L18.395,12.208ZM18.395,14.642C24.348,14.642 24.355,23.648 18.395,23.648C12.445,23.648 12.436,14.642 18.395,14.642Z" fill="#FFFFFF"/>
</svg>
