<svg width="232" height="32" viewBox="0 0 232 32" fill="none" xmlns="http://www.w3.org/2000/svg" xmlns:xlink="http://www.w3.org/1999/xlink">
<path d="M13.465,7.834C12.368,9.27 11.2,10.831 9.962,12.52C8.724,14.208 7.682,15.939 6.838,17.712L13.465,17.712L13.465,7.834ZM19.628,0.152L19.628,17.712L22.751,17.712L22.751,22.861L19.628,22.861L19.628,29.404L13.465,29.404L13.465,22.861L0.844,22.861L0.844,18.26C1.463,17.022 2.237,15.629 3.166,14.082C4.094,12.506 5.122,10.902 6.247,9.27C7.401,7.609 8.611,5.991 9.877,4.415C11.144,2.84 12.41,1.418 13.676,0.152L19.628,0.152Z" fill="#000000"/>
<path d="M33.108,26.069C33.108,27.336 32.7,28.307 31.884,28.982C31.096,29.629 30.196,29.953 29.183,29.953C28.17,29.953 27.255,29.629 26.439,28.982C25.651,28.307 25.257,27.336 25.257,26.069C25.257,24.803 25.651,23.846 26.439,23.199C27.255,22.524 28.17,22.186 29.183,22.186C30.196,22.186 31.096,22.524 31.884,23.199C32.7,23.846 33.108,24.803 33.108,26.069Z" fill="#000000"/>
<path d="M46.577,13.702C47.225,13.702 47.9,13.645 48.603,13.533C49.307,13.392 49.828,13.209 50.165,12.984L50.165,12.604C50.165,12.492 50.165,12.379 50.165,12.267C50.193,12.154 50.207,12.056 50.207,11.971C50.179,10.958 50.095,10.015 49.954,9.143C49.813,8.242 49.574,7.469 49.237,6.821C48.899,6.146 48.435,5.625 47.844,5.26C47.281,4.866 46.577,4.669 45.733,4.669C45.058,4.669 44.467,4.809 43.96,5.091C43.454,5.372 43.046,5.738 42.736,6.188C42.427,6.638 42.187,7.131 42.019,7.666C41.878,8.2 41.808,8.721 41.808,9.227C41.808,10.747 42.173,11.873 42.905,12.604C43.665,13.336 44.889,13.702 46.577,13.702ZM49.659,17.796C49.068,18.078 48.406,18.289 47.675,18.429C46.971,18.542 46.366,18.598 45.86,18.598C44.031,18.598 42.469,18.387 41.174,17.965C39.88,17.515 38.811,16.896 37.966,16.108C37.15,15.292 36.545,14.321 36.151,13.195C35.757,12.07 35.56,10.831 35.56,9.481C35.56,8.355 35.743,7.201 36.109,6.019C36.503,4.838 37.108,3.768 37.924,2.811C38.74,1.826 39.767,1.025 41.006,0.405C42.272,-0.242 43.791,-0.565 45.564,-0.565C49.194,-0.565 51.924,0.56 53.753,2.811C55.61,5.034 56.539,8.242 56.539,12.435C56.539,15.193 56.173,17.627 55.442,19.738C54.738,21.848 53.626,23.621 52.107,25.056C50.615,26.492 48.702,27.589 46.366,28.349C44.031,29.08 41.259,29.46 38.051,29.488C38.023,28.588 37.98,27.716 37.924,26.871C37.868,26.027 37.812,25.155 37.755,24.254C39.359,24.226 40.809,24.114 42.103,23.917C43.397,23.692 44.537,23.34 45.522,22.861C46.507,22.355 47.337,21.694 48.012,20.878C48.716,20.061 49.265,19.034 49.659,17.796Z" fill="#000000"/>
<path d="M104.42,23.278C104.155,23.529 104.033,23.893 104.093,24.25L105.004,29.177C105.081,29.595 104.901,30.018 104.543,30.259C104.193,30.51 103.726,30.54 103.344,30.339L98.807,28.026C98.649,27.943 98.474,27.899 98.294,27.894L98.017,27.894C97.92,27.908 97.826,27.938 97.74,27.985L93.201,30.309C92.977,30.419 92.723,30.458 92.474,30.419C91.867,30.307 91.463,29.742 91.562,29.146L92.474,24.219C92.534,23.859 92.412,23.493 92.147,23.238L88.448,19.732C88.138,19.439 88.031,18.998 88.172,18.601C88.309,18.204 88.66,17.914 89.083,17.849L94.175,17.127C94.562,17.088 94.902,16.858 95.076,16.517L97.32,12.02C97.373,11.92 97.442,11.828 97.525,11.75L97.617,11.68C97.665,11.627 97.721,11.584 97.782,11.549L97.894,11.509L98.068,11.439L98.499,11.439C98.884,11.478 99.224,11.704 99.401,12.04L101.674,16.517C101.838,16.845 102.157,17.072 102.525,17.127L107.617,17.849C108.047,17.909 108.406,18.2 108.549,18.601C108.683,19.002 108.567,19.443 108.252,19.732L104.42,23.278Z" fill="#FB3F6C"/>
<path d="M135.156,23.278C134.891,23.529 134.769,23.893 134.83,24.25L135.74,29.177C135.817,29.595 135.637,30.018 135.279,30.259C134.929,30.51 134.463,30.54 134.081,30.339L129.543,28.026C129.385,27.943 129.21,27.899 129.031,27.894L128.753,27.894C128.657,27.908 128.562,27.938 128.476,27.985L123.938,30.309C123.713,30.419 123.459,30.458 123.21,30.419C122.604,30.307 122.199,29.742 122.298,29.146L123.21,24.219C123.271,23.859 123.149,23.493 122.883,23.238L119.184,19.732C118.874,19.439 118.767,18.998 118.908,18.601C119.046,18.204 119.396,17.914 119.819,17.849L124.911,17.127C125.298,17.088 125.638,16.858 125.813,16.517L128.056,12.02C128.11,11.92 128.178,11.828 128.261,11.75L128.353,11.68C128.402,11.627 128.457,11.584 128.518,11.549L128.63,11.509L128.804,11.439L129.236,11.439C129.621,11.478 129.96,11.704 130.137,12.04L132.411,16.517C132.575,16.845 132.893,17.072 133.261,17.127L138.353,17.849C138.783,17.909 139.143,18.2 139.285,18.601C139.419,19.002 139.304,19.443 138.988,19.732L135.156,23.278Z" fill="#FB3F6C"/>
<path d="M165.893,23.278C165.627,23.529 165.505,23.893 165.566,24.25L166.477,29.177C166.554,29.595 166.373,30.018 166.016,30.259C165.665,30.51 165.199,30.54 164.817,30.339L160.279,28.026C160.121,27.943 159.946,27.899 159.767,27.894L159.489,27.894C159.393,27.908 159.299,27.938 159.213,27.985L154.674,30.309C154.45,30.419 154.196,30.458 153.947,30.419C153.34,30.307 152.935,29.742 153.035,29.146L153.947,24.219C154.007,23.859 153.885,23.493 153.62,23.238L149.92,19.732C149.611,19.439 149.503,18.998 149.645,18.601C149.782,18.204 150.132,17.914 150.555,17.849L155.647,17.127C156.035,17.088 156.375,16.858 156.549,16.517L158.793,12.02C158.846,11.92 158.915,11.828 158.998,11.75L159.09,11.68C159.138,11.627 159.193,11.584 159.255,11.549L159.366,11.509L159.541,11.439L159.972,11.439C160.357,11.478 160.696,11.704 160.873,12.04L163.147,16.517C163.311,16.845 163.629,17.072 163.997,17.127L169.089,17.849C169.52,17.909 169.879,18.2 170.022,18.601C170.156,19.002 170.04,19.443 169.724,19.732L165.893,23.278Z" fill="#FB3F6C"/>
<path d="M196.628,23.278C196.363,23.529 196.241,23.893 196.302,24.25L197.212,29.177C197.289,29.595 197.109,30.018 196.751,30.259C196.401,30.51 195.935,30.54 195.553,30.339L191.015,28.026C190.857,27.943 190.682,27.899 190.503,27.894L190.225,27.894C190.129,27.908 190.035,27.938 189.948,27.985L185.41,30.309C185.185,30.419 184.931,30.458 184.682,30.419C184.076,30.307 183.671,29.742 183.771,29.146L184.682,24.219C184.743,23.859 184.621,23.493 184.356,23.238L180.656,19.732C180.347,19.439 180.239,18.998 180.38,18.601C180.518,18.204 180.868,17.914 181.291,17.849L186.383,17.127C186.77,17.088 187.111,16.858 187.285,16.517L189.528,12.02C189.582,11.92 189.65,11.828 189.733,11.75L189.826,11.68C189.874,11.627 189.929,11.584 189.99,11.549L190.102,11.509L190.276,11.439L190.708,11.439C191.093,11.478 191.432,11.704 191.609,12.04L193.883,16.517C194.047,16.845 194.365,17.072 194.733,17.127L199.825,17.849C200.255,17.909 200.615,18.2 200.757,18.601C200.892,19.002 200.776,19.443 200.46,19.732L196.628,23.278Z" fill="#FB3F6C"/>
<path d="M227.364,23.278C227.1,23.529 226.978,23.893 227.038,24.25L227.948,29.177C228.026,29.595 227.846,30.018 227.488,30.259C227.138,30.51 226.67,30.54 226.288,30.339L221.752,28.026C221.594,27.943 221.418,27.899 221.238,27.894L220.962,27.894C220.864,27.908 220.77,27.938 220.684,27.985L216.146,30.309C215.922,30.419 215.668,30.458 215.418,30.419C214.812,30.307 214.408,29.742 214.506,29.146L215.418,24.219C215.478,23.859 215.358,23.493 215.092,23.238L211.392,19.732C211.082,19.439 210.976,18.998 211.116,18.601C211.254,18.204 211.604,17.914 212.028,17.849L217.12,17.127C217.506,17.088 217.846,16.858 218.02,16.517L220.264,12.02C220.318,11.92 220.386,11.828 220.47,11.75L220.562,11.68C220.61,11.627 220.666,11.584 220.726,11.549L220.838,11.509L221.012,11.439L221.444,11.439C221.83,11.478 222.168,11.704 222.346,12.04L224.618,16.517C224.782,16.845 225.102,17.072 225.47,17.127L230.562,17.849C230.992,17.909 231.352,18.2 231.494,18.601C231.628,19.002 231.512,19.443 231.196,19.732L227.364,23.278Z" fill="#FB3F6C"/>
</svg>
