<svg width="58" height="58" viewBox="0 0 58 58" fill="none" xmlns="http://www.w3.org/2000/svg" xmlns:xlink="http://www.w3.org/1999/xlink">
<g opacity="0.4">
<path d="M51.067,26.972L51.067,41.019C51.067,47.491 45.814,52.744 39.342,52.744L18.846,52.744C12.374,52.744 7.121,47.491 7.121,41.019L7.121,27.137C8.903,29.059 11.436,30.162 14.18,30.162C17.134,30.162 19.972,28.684 21.754,26.316C23.349,28.684 26.069,30.162 29.094,30.162C32.096,30.162 34.769,28.755 36.387,26.41C38.193,28.731 40.983,30.162 43.891,30.162C46.729,30.162 49.308,29.013 51.067,26.972Z" fill="#593FFB"/>
</g>
<path d="M36.105,3.194L22.035,3.194L20.3,20.453C20.159,22.048 20.394,23.549 20.98,24.909C22.34,28.098 25.529,30.162 29.094,30.162C32.705,30.162 35.824,28.145 37.231,24.932C37.653,23.924 37.911,22.751 37.935,21.555L37.935,21.11L36.105,3.194Z" fill="#593FFB"/>
<g opacity="0.6">
<path d="M53.388,19.656L52.708,13.16C51.723,6.078 48.511,3.194 41.64,3.194L32.635,3.194L34.37,20.782C34.394,21.016 34.417,21.274 34.417,21.72C34.558,22.939 34.933,24.065 35.496,25.073C37.184,28.168 40.467,30.162 43.891,30.162C47.01,30.162 49.824,28.778 51.583,26.339C52.99,24.463 53.623,22.095 53.388,19.656Z" fill="#593FFB"/>
</g>
<g opacity="0.6">
<path d="M16.407,3.194C9.513,3.194 6.324,6.078 5.315,13.231L4.682,19.679C4.448,22.189 5.128,24.627 6.605,26.527C8.387,28.848 11.131,30.162 14.179,30.162C17.603,30.162 20.886,28.168 22.551,25.12C23.161,24.065 23.56,22.845 23.677,21.579L25.506,3.217L16.407,3.217L16.407,3.194Z" fill="#593FFB"/>
</g>
<path d="M27.57,39.331C24.592,39.636 22.34,42.168 22.34,45.17L22.34,52.744L35.824,52.744L35.824,45.991C35.848,41.09 32.963,38.768 27.57,39.331Z" fill="#593FFB"/>
</svg>
