<svg width="232" height="62" viewBox="0 0 232 62" fill="none" xmlns="http://www.w3.org/2000/svg" xmlns:xlink="http://www.w3.org/1999/xlink">
<g filter="url(#filter1_2503)">
<path d="M2.733,29.7C2.733,14.957 14.013,3.006 27.928,3.006C41.842,3.006 53.122,14.957 53.122,29.7C53.122,44.443 41.842,56.395 27.928,56.395C14.013,56.395 2.733,44.443 2.733,29.7Z" fill="url(#pattern_0_1_2503)"/>
</g>
<g filter="url(#filter1_2504)">
<path d="M27.786,60.61C12.636,60.61 0.355,47.157 0.355,30.562C0.355,13.967 12.636,0.514 27.786,0.514C42.935,0.514 55.216,13.967 55.216,30.562C55.216,47.157 42.935,60.61 27.786,60.61ZM27.786,2.918C13.848,2.918 2.549,15.294 2.549,30.562C2.549,45.829 13.848,58.206 27.786,58.206C41.723,58.206 53.022,45.829 53.022,30.562C53.022,15.294 41.723,2.918 27.786,2.918Z" clip-rule="evenodd" fill-rule="evenodd" fill="#FFFFFF"/>
</g>
<g filter="url(#filter1_2505)">
<path d="M47.308,30.768C47.308,15.435 58.154,3.006 71.533,3.006C84.912,3.006 95.758,15.435 95.758,30.768C95.758,46.101 84.912,58.531 71.533,58.531C58.154,58.531 47.308,46.101 47.308,30.768Z" fill="url(#pattern_0_1_2505)"/>
</g>
<g filter="url(#filter1_2506)">
<path d="M71.676,60.61C56.527,60.61 44.246,47.157 44.246,30.562C44.246,13.967 56.527,0.514 71.676,0.514C86.826,0.514 99.107,13.967 99.107,30.562C99.107,47.157 86.826,60.61 71.676,60.61ZM71.676,2.918C57.739,2.918 46.44,15.294 46.44,30.562C46.44,45.829 57.739,58.206 71.676,58.206C85.614,58.206 96.912,45.829 96.912,30.562C96.912,15.294 85.614,2.918 71.676,2.918Z" clip-rule="evenodd" fill-rule="evenodd" fill="#FFFFFF"/>
</g>
<g filter="url(#filter1_2507)">
<path d="M90.328,30.562C90.328,15.294 101.627,2.918 115.564,2.918L115.564,2.918C129.502,2.918 140.801,15.294 140.801,30.562L140.801,30.562C140.801,45.829 129.502,58.206 115.564,58.206L115.564,58.206C101.627,58.206 90.328,45.829 90.328,30.562L90.328,30.562Z" fill="url(#pattern_0_1_2507)"/>
</g>
<g filter="url(#filter1_2508)">
<path d="M115.564,60.61C100.415,60.61 88.134,47.157 88.134,30.562C88.134,13.967 100.415,0.514 115.564,0.514C130.714,0.514 142.995,13.967 142.995,30.562C142.995,47.157 130.714,60.61 115.564,60.61ZM115.564,2.918C101.627,2.918 90.328,15.294 90.328,30.562C90.328,45.829 101.627,58.206 115.564,58.206C129.502,58.206 140.801,45.829 140.801,30.562C140.801,15.294 129.502,2.918 115.564,2.918Z" clip-rule="evenodd" fill-rule="evenodd" fill="#FFFFFF"/>
</g>
<g filter="url(#filter1_2509)">
<path d="M134.218,30.562C134.218,15.294 145.516,2.918 159.454,2.918L159.454,2.918C173.392,2.918 184.69,15.294 184.69,30.562L184.69,30.562C184.69,45.829 173.392,58.206 159.454,58.206L159.454,58.206C145.516,58.206 134.218,45.829 134.218,30.562L134.218,30.562Z" fill="url(#pattern_0_1_2509)"/>
</g>
<g filter="url(#filter1_2510)">
<path d="M159.454,60.61C144.304,60.61 132.023,47.157 132.023,30.562C132.023,13.967 144.304,0.514 159.454,0.514C174.603,0.514 186.884,13.967 186.884,30.562C186.884,47.157 174.603,60.61 159.454,60.61ZM159.454,2.918C145.516,2.918 134.217,15.294 134.217,30.562C134.217,45.829 145.516,58.206 159.454,58.206C173.391,58.206 184.69,45.829 184.69,30.562C184.69,15.294 173.391,2.918 159.454,2.918Z" clip-rule="evenodd" fill-rule="evenodd" fill="#FFFFFF"/>
</g>
<g filter="url(#filter1_2512)">
<path d="M178.107,30.562C178.107,15.294 189.406,2.918 203.343,2.918L203.343,2.918C217.281,2.918 228.579,15.294 228.579,30.562L228.579,30.562C228.579,45.829 217.281,58.206 203.343,58.206L203.343,58.206C189.406,58.206 178.107,45.829 178.107,30.562L178.107,30.562Z" fill="#FB3F6C"/>
</g>
<g filter="url(#filter1_2513)">
<path d="M203.342,60.61C188.193,60.61 175.912,47.157 175.912,30.562C175.912,13.967 188.193,0.514 203.342,0.514C218.492,0.514 230.773,13.967 230.773,30.562C230.773,47.157 218.492,60.61 203.342,60.61ZM203.342,2.918C189.405,2.918 178.106,15.294 178.106,30.562C178.106,45.829 189.405,58.206 203.342,58.206C217.28,58.206 228.578,45.829 228.578,30.562C228.578,15.294 217.28,2.918 203.342,2.918Z" clip-rule="evenodd" fill-rule="evenodd" fill="#FFFFFF"/>
</g>
<path d="M199.32,28.016C200.202,28.016 200.972,28.225 201.631,28.643C202.302,29.047 202.816,29.624 203.171,30.374C203.54,31.109 203.724,31.96 203.724,32.927C203.724,33.922 203.52,34.794 203.112,35.544C202.717,36.294 202.144,36.879 201.394,37.297C200.643,37.715 199.768,37.924 198.767,37.924C197.898,37.924 197.042,37.758 196.199,37.427C195.357,37.095 194.659,36.641 194.106,36.064L194.817,34.419C196.12,35.544 197.444,36.107 198.787,36.107C199.722,36.107 200.446,35.833 200.959,35.285C201.486,34.722 201.749,33.951 201.749,32.97C201.749,32.032 201.486,31.275 200.959,30.698C200.446,30.121 199.754,29.833 198.885,29.833C197.621,29.833 196.608,30.359 195.844,31.412L194.521,31.412L194.521,22.369L203.132,22.369L203.132,24.165L196.535,24.165L196.535,29.054C197.286,28.362 198.214,28.016 199.32,28.016Z" fill="#FFFFFF"/>
<path d="M212.762,37.773L208.002,32.624L208.002,37.773L206.027,37.773L206.027,21.85L208.002,21.85L208.002,31.802L212.426,26.891L214.895,26.891L210.135,32.126L215.31,37.773L212.762,37.773Z" fill="#FFFFFF"/>
<defs>
<filter id="filter1_2503" x="-11.336771" y="-11.06431" width="53.334641" height="54.834942" filterUnits="userSpaceOnUse" color-interpolation-filters="sRGB">
<feFlood flood-opacity="0" result="BackgroundImageFix"/>
<feColorMatrix in="SourceAlpha" type="matrix" values="0 0 0 0 0 0 0 0 0 0 0 0 0 0 0 0 0 0 127 0" result="hardAlpha"/>
<feMorphology radius="0" operator="dilate" in="SourceAlpha" result="0dropshadow"/>
<feOffset dx="-6.331575" dy="2.814034"/>
<feGaussianBlur stdDeviation="7.035085"/>
<feComposite in2="hardAlpha" operator="out"/>
<feColorMatrix type="matrix" values="0 0 0 0 0 0 0 0 0 0 0 0 0 0 0 0 0 0 0.05 0"/>
<feBlend mode="normal" in2="BackgroundImageFix" result="0dropshadow"/>
<feBlend mode="normal" in="SourceGraphic" in2="0dropshadow" result="shape"/>
</filter>
<filter id="filter1_2504" x="-13.715189" y="-13.556253" width="55.570963" height="58.188143" filterUnits="userSpaceOnUse" color-interpolation-filters="sRGB">
<feFlood flood-opacity="0" result="BackgroundImageFix"/>
<feColorMatrix in="SourceAlpha" type="matrix" values="0 0 0 0 0 0 0 0 0 0 0 0 0 0 0 0 0 0 127 0" result="hardAlpha"/>
<feMorphology radius="0" operator="dilate" in="SourceAlpha" result="0dropshadow"/>
<feOffset dx="-6.331575" dy="2.814034"/>
<feGaussianBlur stdDeviation="7.035085"/>
<feComposite in2="hardAlpha" operator="out"/>
<feColorMatrix type="matrix" values="0 0 0 0 0 0 0 0 0 0 0 0 0 0 0 0 0 0 0.05 0"/>
<feBlend mode="normal" in2="BackgroundImageFix" result="0dropshadow"/>
<feBlend mode="normal" in="SourceGraphic" in2="0dropshadow" result="shape"/>
</filter>
<filter id="filter1_2505" x="33.237448" y="-11.06431" width="52.365629" height="55.902727" filterUnits="userSpaceOnUse" color-interpolation-filters="sRGB">
<feFlood flood-opacity="0" result="BackgroundImageFix"/>
<feColorMatrix in="SourceAlpha" type="matrix" values="0 0 0 0 0 0 0 0 0 0 0 0 0 0 0 0 0 0 127 0" result="hardAlpha"/>
<feMorphology radius="0" operator="dilate" in="SourceAlpha" result="0dropshadow"/>
<feOffset dx="-9.849118" dy="2.814034"/>
<feGaussianBlur stdDeviation="7.035085"/>
<feComposite in2="hardAlpha" operator="out"/>
<feColorMatrix type="matrix" values="0 0 0 0 0 0 0 0 0 0 0 0 0 0 0 0 0 0 0.05 0"/>
<feBlend mode="normal" in2="BackgroundImageFix" result="0dropshadow"/>
<feBlend mode="normal" in="SourceGraphic" in2="0dropshadow" result="shape"/>
</filter>
<filter id="filter1_2506" x="30.175436" y="-13.556253" width="55.570963" height="58.188143" filterUnits="userSpaceOnUse" color-interpolation-filters="sRGB">
<feFlood flood-opacity="0" result="BackgroundImageFix"/>
<feColorMatrix in="SourceAlpha" type="matrix" values="0 0 0 0 0 0 0 0 0 0 0 0 0 0 0 0 0 0 127 0" result="hardAlpha"/>
<feMorphology radius="0" operator="dilate" in="SourceAlpha" result="0dropshadow"/>
<feOffset dx="-9.849118" dy="2.814034"/>
<feGaussianBlur stdDeviation="7.035085"/>
<feComposite in2="hardAlpha" operator="out"/>
<feColorMatrix type="matrix" values="0 0 0 0 0 0 0 0 0 0 0 0 0 0 0 0 0 0 0.05 0"/>
<feBlend mode="normal" in2="BackgroundImageFix" result="0dropshadow"/>
<feBlend mode="normal" in="SourceGraphic" in2="0dropshadow" result="shape"/>
</filter>
<filter id="filter1_2507" x="76.257956" y="-11.152445" width="53.376514" height="55.784317" filterUnits="userSpaceOnUse" color-interpolation-filters="sRGB">
<feFlood flood-opacity="0" result="BackgroundImageFix"/>
<feColorMatrix in="SourceAlpha" type="matrix" values="0 0 0 0 0 0 0 0 0 0 0 0 0 0 0 0 0 0 127 0" result="hardAlpha"/>
<feMorphology radius="0" operator="dilate" in="SourceAlpha" result="0dropshadow"/>
<feOffset dx="-7.035085" dy="2.814034"/>
<feGaussianBlur stdDeviation="7.035085"/>
<feComposite in2="hardAlpha" operator="out"/>
<feColorMatrix type="matrix" values="0 0 0 0 0 0 0 0 0 0 0 0 0 0 0 0 0 0 0.05 0"/>
<feBlend mode="normal" in2="BackgroundImageFix" result="0dropshadow"/>
<feBlend mode="normal" in="SourceGraphic" in2="0dropshadow" result="shape"/>
</filter>
<filter id="filter1_2508" x="74.06362" y="-13.556253" width="55.570963" height="58.188143" filterUnits="userSpaceOnUse" color-interpolation-filters="sRGB">
<feFlood flood-opacity="0" result="BackgroundImageFix"/>
<feColorMatrix in="SourceAlpha" type="matrix" values="0 0 0 0 0 0 0 0 0 0 0 0 0 0 0 0 0 0 127 0" result="hardAlpha"/>
<feMorphology radius="0" operator="dilate" in="SourceAlpha" result="0dropshadow"/>
<feOffset dx="-7.035085" dy="2.814034"/>
<feGaussianBlur stdDeviation="7.035085"/>
<feComposite in2="hardAlpha" operator="out"/>
<feColorMatrix type="matrix" values="0 0 0 0 0 0 0 0 0 0 0 0 0 0 0 0 0 0 0.05 0"/>
<feBlend mode="normal" in2="BackgroundImageFix" result="0dropshadow"/>
<feBlend mode="normal" in="SourceGraphic" in2="0dropshadow" result="shape"/>
</filter>
<filter id="filter1_2509" x="120.147604" y="-11.152445" width="53.376514" height="55.784317" filterUnits="userSpaceOnUse" color-interpolation-filters="sRGB">
<feFlood flood-opacity="0" result="BackgroundImageFix"/>
<feColorMatrix in="SourceAlpha" type="matrix" values="0 0 0 0 0 0 0 0 0 0 0 0 0 0 0 0 0 0 127 0" result="hardAlpha"/>
<feMorphology radius="0" operator="dilate" in="SourceAlpha" result="0dropshadow"/>
<feOffset dx="-6.331575" dy="2.814034"/>
<feGaussianBlur stdDeviation="7.035085"/>
<feComposite in2="hardAlpha" operator="out"/>
<feColorMatrix type="matrix" values="0 0 0 0 0 0 0 0 0 0 0 0 0 0 0 0 0 0 0.05 0"/>
<feBlend mode="normal" in2="BackgroundImageFix" result="0dropshadow"/>
<feBlend mode="normal" in="SourceGraphic" in2="0dropshadow" result="shape"/>
</filter>
<filter id="filter1_2510" x="117.95278" y="-13.556253" width="55.570963" height="58.188143" filterUnits="userSpaceOnUse" color-interpolation-filters="sRGB">
<feFlood flood-opacity="0" result="BackgroundImageFix"/>
<feColorMatrix in="SourceAlpha" type="matrix" values="0 0 0 0 0 0 0 0 0 0 0 0 0 0 0 0 0 0 127 0" result="hardAlpha"/>
<feMorphology radius="0" operator="dilate" in="SourceAlpha" result="0dropshadow"/>
<feOffset dx="-6.331575" dy="2.814034"/>
<feGaussianBlur stdDeviation="7.035085"/>
<feComposite in2="hardAlpha" operator="out"/>
<feColorMatrix type="matrix" values="0 0 0 0 0 0 0 0 0 0 0 0 0 0 0 0 0 0 0.05 0"/>
<feBlend mode="normal" in2="BackgroundImageFix" result="0dropshadow"/>
<feBlend mode="normal" in="SourceGraphic" in2="0dropshadow" result="shape"/>
</filter>
<filter id="filter1_2512" x="164.036764" y="-11.152445" width="53.376514" height="55.784317" filterUnits="userSpaceOnUse" color-interpolation-filters="sRGB">
<feFlood flood-opacity="0" result="BackgroundImageFix"/>
<feColorMatrix in="SourceAlpha" type="matrix" values="0 0 0 0 0 0 0 0 0 0 0 0 0 0 0 0 0 0 127 0" result="hardAlpha"/>
<feMorphology radius="0" operator="dilate" in="SourceAlpha" result="0dropshadow"/>
<feOffset dx="-14.070169" dy="2.814034"/>
<feGaussianBlur stdDeviation="7.035085"/>
<feComposite in2="hardAlpha" operator="out"/>
<feColorMatrix type="matrix" values="0 0 0 0 0 0 0 0 0 0 0 0 0 0 0 0 0 0 0.05 0"/>
<feBlend mode="normal" in2="BackgroundImageFix" result="0dropshadow"/>
<feBlend mode="normal" in="SourceGraphic" in2="0dropshadow" result="shape"/>
</filter>
<filter id="filter1_2513" x="161.841452" y="-13.556253" width="55.570963" height="58.188143" filterUnits="userSpaceOnUse" color-interpolation-filters="sRGB">
<feFlood flood-opacity="0" result="BackgroundImageFix"/>
<feColorMatrix in="SourceAlpha" type="matrix" values="0 0 0 0 0 0 0 0 0 0 0 0 0 0 0 0 0 0 127 0" result="hardAlpha"/>
<feMorphology radius="0" operator="dilate" in="SourceAlpha" result="0dropshadow"/>
<feOffset dx="-14.070169" dy="2.814034"/>
<feGaussianBlur stdDeviation="7.035085"/>
<feComposite in2="hardAlpha" operator="out"/>
<feColorMatrix type="matrix" values="0 0 0 0 0 0 0 0 0 0 0 0 0 0 0 0 0 0 0.05 0"/>
<feBlend mode="normal" in2="BackgroundImageFix" result="0dropshadow"/>
<feBlend mode="normal" in="SourceGraphic" in2="0dropshadow" result="shape"/>
</filter>
</defs>
</svg>
