<svg width="40" height="36" viewBox="0 0 40 36" fill="none" xmlns="http://www.w3.org/2000/svg" xmlns:xlink="http://www.w3.org/1999/xlink">
<path d="M19.776,-0.469C15.982,-0.469 12.273,0.563 9.118,2.495C5.963,4.428 3.505,7.175 2.053,10.388C0.601,13.602 0.221,17.138 0.961,20.55C1.701,23.962 3.528,27.096 6.211,29.555C8.894,32.015 12.312,33.69 16.034,34.369C19.755,35.047 23.612,34.699 27.118,33.368C30.623,32.037 33.619,29.782 35.727,26.89C37.835,23.998 38.96,20.597 38.96,17.119C38.96,14.809 38.464,12.522 37.5,10.388C36.536,8.254 35.123,6.316 33.341,4.682C31.56,3.049 29.445,1.754 27.118,0.87C24.79,-0.014 22.296,-0.469 19.776,-0.469L19.776,-0.469ZM28.812,13.091L17.302,23.644C17.123,23.809 16.911,23.94 16.677,24.029C16.444,24.118 16.193,24.164 15.94,24.164C15.686,24.164 15.436,24.118 15.202,24.029C14.968,23.94 14.756,23.809 14.577,23.644L10.741,20.126C10.562,19.962 10.42,19.768 10.323,19.553C10.226,19.339 10.176,19.11 10.176,18.878C10.176,18.646 10.226,18.416 10.323,18.202C10.42,17.988 10.562,17.793 10.741,17.629C10.92,17.465 11.132,17.335 11.366,17.246C11.599,17.157 11.85,17.112 12.103,17.112C12.356,17.112 12.606,17.157 12.84,17.246C13.074,17.335 13.286,17.465 13.465,17.629L15.94,19.915L26.088,10.594C26.449,10.263 26.939,10.077 27.45,10.077C27.961,10.077 28.451,10.263 28.812,10.594C29.173,10.925 29.376,11.374 29.376,11.843C29.376,12.311 29.173,12.76 28.812,13.091L28.812,13.091Z" fill="#CED1E5"/>
</svg>
