<svg width="168" height="194" viewBox="0 0 168 194" fill="none" xmlns="http://www.w3.org/2000/svg" xmlns:xlink="http://www.w3.org/1999/xlink">
<path d="M159.38,37.272C156.755,31.486 153.147,26.121 148.689,21.379C143.751,16.386 137.901,12.228 131.404,9.092C117.464,2.707 101.92,-0.119 86.39,0.907C78.499,1.319 70.688,2.585 63.118,4.678C55.464,6.8 48.152,9.852 41.376,13.754C28.009,21.393 16.917,31.975 9.101,44.545C1.561,56.853 -2.445,71.171 -0.059,85.199C1.125,92.253 3.95,98.989 8.223,104.945C12.507,111.247 18.598,116.338 25.824,119.657C33.269,122.9 41.522,124.253 49.726,123.573C57.465,122.955 65.055,121.25 72.233,118.517C79.081,115.951 85.589,112.677 91.634,108.758C94.593,106.844 97.35,104.679 99.872,102.293C102.302,99.91 104.373,97.548 106.624,95.082C110.768,90.308 114.162,85.021 116.707,79.376C119.203,73.946 120.164,68.022 119.498,62.157C118.8,56.49 116.382,51.119 112.521,46.658C108.663,42.268 103.466,39.042 97.598,37.396C92.086,35.878 86.283,35.469 80.583,36.194C75.431,36.801 70.417,38.158 65.729,40.214C61.611,42.084 57.819,44.508 54.475,47.404C51.59,49.932 49.085,52.803 47.025,55.941C45.288,58.608 43.912,61.461 42.929,64.437C42.127,66.912 41.629,69.463 41.443,72.041C41.164,75.579 41.56,79.134 42.614,82.546C42.921,83.764 43.446,84.926 44.167,85.986C44.066,84.771 43.825,83.569 43.447,82.401C42.781,79.024 42.667,75.574 43.109,72.165C43.431,69.703 44.035,67.279 44.91,64.934C46,62.144 47.427,59.475 49.163,56.977C51.231,54.085 53.689,51.446 56.478,49.124C63.347,43.503 71.976,40.035 81.123,39.22C86.256,38.679 91.455,39.138 96.383,40.566C101.434,42.105 105.876,44.99 109.145,48.855C112.444,52.842 114.464,57.602 114.974,62.592C115.445,67.849 114.469,73.129 112.138,77.946C109.652,83.177 106.379,88.06 102.415,92.451C100.412,94.751 98.206,97.113 96,99.247C93.667,101.369 91.128,103.29 88.416,104.987C82.699,108.603 76.552,111.606 70.095,113.938C63.488,116.379 56.511,117.868 49.411,118.352C42.383,118.892 35.327,117.69 28.975,114.87C22.812,111.942 17.649,107.503 14.052,102.044C10.3,96.709 7.857,90.684 6.895,84.391C4.892,71.855 8.606,58.759 15.695,47.425C22.995,35.892 33.268,26.192 45.607,19.183C58.107,12.201 72.322,8.245 86.93,7.683C100.916,6.795 114.904,9.37 127.443,15.142C133.062,17.87 138.12,21.482 142.387,25.813C146.298,30.014 149.465,34.754 151.773,39.862C153.995,44.77 155.64,49.882 156.679,55.112C157.702,60.071 158.215,65.108 158.21,70.155C158.2,79.309 156.604,88.402 153.483,97.092C150.666,104.714 146.769,111.959 141.892,118.642C134.051,129.223 124.127,138.359 112.633,145.578C104.579,150.616 95.972,154.86 86.953,158.239C81.319,160.333 75.563,162.139 69.712,163.647C65.638,164.662 62.78,165.325 60.709,165.822C62.486,162.791 63.933,159.605 65.031,156.312C67.034,150.095 66.876,145.951 66.021,145.848C65.166,145.744 63.545,149.37 60.529,154.944C58.775,158.188 56.806,161.33 54.633,164.351C53.417,166.071 52.044,167.812 50.559,169.573C49.566,170.608 48.712,171.748 48.015,172.971C47.76,173.459 47.571,173.974 47.453,174.504C47.352,175.074 47.352,175.655 47.453,176.224C47.608,177.421 48.242,178.522 49.231,179.311C49.743,179.722 50.31,180.071 50.919,180.348L51.999,180.803L53.845,181.591L57.491,183.124L64.423,185.942C68.925,187.703 72.908,189.216 76.352,190.438C83.239,192.821 87.605,193.961 88.123,193.256C88.641,192.552 84.86,190.148 78.535,186.812C75.362,185.155 71.558,183.269 67.282,181.238L60.529,178.13L54.115,175.333C54.115,175.333 54.115,175.333 54.115,175.188C54.62,174.328 55.216,173.516 55.893,172.764C56.681,171.769 57.401,170.795 58.144,169.801C62.493,169.828 66.83,169.376 71.063,168.454C77.325,167.254 83.485,165.641 89.496,163.626C99.209,160.333 108.482,156.029 117.135,150.8C129.646,143.237 140.452,133.521 148.959,122.185C154.196,115.055 158.374,107.313 161.383,99.164C164.792,89.814 166.532,80.018 166.537,70.155C166.544,64.71 165.979,59.277 164.849,53.931C163.722,48.241 161.918,42.682 159.47,37.355Z" transform="rotate(360 82.895 97.082)" fill="#FFFFFF"/>
</svg>
