<svg width="22" height="20" viewBox="0 0 22 20" fill="none" xmlns="http://www.w3.org/2000/svg" xmlns:xlink="http://www.w3.org/1999/xlink">
<path d="M10.951,0.977C5.237,0.977 0.604,4.828 0.604,9.578C0.604,14.327 5.237,18.179 10.951,18.179C16.665,18.179 21.297,14.327 21.297,9.578C21.297,4.828 16.665,0.977 10.951,0.977ZM10.951,16.72C6.207,16.72 2.36,13.521 2.36,9.578C2.36,5.634 6.207,2.436 10.951,2.436C15.695,2.436 19.542,5.634 19.542,9.578C19.542,13.521 15.695,16.72 10.951,16.72ZM11.08,6.493C12.304,6.493 13.136,7.141 13.228,8.094C13.235,8.174 13.316,8.236 13.413,8.236L14.722,8.236C14.782,8.236 14.831,8.195 14.831,8.145C14.831,6.481 13.251,5.316 11.073,5.316C8.535,5.316 7.071,6.74 7.071,9.094L7.071,10.098C7.071,12.434 8.535,13.84 11.073,13.84C13.244,13.84 14.831,12.711 14.831,11.125C14.831,11.075 14.782,11.035 14.722,11.035L13.411,11.035C13.314,11.035 13.235,11.096 13.226,11.175C13.129,12.06 12.3,12.669 11.078,12.669C9.57,12.669 8.72,11.749 8.72,10.104L8.72,9.094C8.722,7.424 9.574,6.493 11.08,6.493L11.08,6.493Z" fill="#FFFFFF"/>
</svg>
