<svg width="40" height="36" viewBox="0 0 40 36" fill="none" xmlns="http://www.w3.org/2000/svg" xmlns:xlink="http://www.w3.org/1999/xlink">
<path d="M19.776,-0.82C15.982,-0.82 12.273,0.212 9.118,2.144C5.963,4.077 3.505,6.824 2.053,10.038C0.601,13.251 0.221,16.788 0.961,20.199C1.701,23.611 3.528,26.745 6.211,29.204C8.894,31.664 12.312,33.339 16.034,34.018C19.755,34.697 23.612,34.348 27.118,33.017C30.623,31.686 33.619,29.432 35.727,26.539C37.835,23.647 38.96,20.247 38.96,16.768C38.96,14.458 38.464,12.171 37.5,10.038C36.536,7.904 35.123,5.965 33.341,4.332C31.56,2.699 29.445,1.403 27.118,0.519C24.79,-0.365 22.296,-0.82 19.776,-0.82L19.776,-0.82ZM28.812,12.74L17.302,23.293C17.123,23.458 16.911,23.589 16.677,23.678C16.444,23.767 16.193,23.813 15.94,23.813C15.686,23.813 15.436,23.767 15.202,23.678C14.968,23.589 14.756,23.458 14.577,23.293L10.741,19.776C10.562,19.612 10.42,19.417 10.323,19.203C10.226,18.988 10.176,18.759 10.176,18.527C10.176,18.295 10.226,18.065 10.323,17.851C10.42,17.637 10.562,17.442 10.741,17.278C10.92,17.114 11.132,16.984 11.366,16.895C11.599,16.807 11.85,16.761 12.103,16.761C12.356,16.761 12.606,16.807 12.84,16.895C13.074,16.984 13.286,17.114 13.465,17.278L15.94,19.565L26.088,10.243C26.449,9.912 26.939,9.726 27.45,9.726C27.961,9.726 28.451,9.912 28.812,10.243C29.173,10.574 29.376,11.023 29.376,11.492C29.376,11.96 29.173,12.409 28.812,12.74L28.812,12.74Z" fill="#CED1E5"/>
</svg>
