<svg width="228" height="76" viewBox="0 0 228 76" fill="none" xmlns="http://www.w3.org/2000/svg" xmlns:xlink="http://www.w3.org/1999/xlink">
<path d="M6.098,37.312C11.682,31.982 17.931,27.417 24.685,23.734C28.955,21.295 33.799,18.784 39.038,16.272C44.632,13.552 50.405,11.228 56.316,9.319C59.502,8.303 62.75,7.5 66.04,6.917C69.448,6.269 72.907,5.934 76.374,5.916C79.927,5.855 83.474,6.222 86.941,7.008C90.455,7.751 93.853,8.976 97.042,10.648L97.563,10.939C97.419,11.085 97.24,11.212 97.078,11.358C91.006,16.891 86.87,24.274 85.291,32.398C84.534,36.527 84.613,40.769 85.524,44.865C86.475,49.157 88.495,53.13 91.391,56.405C92.866,58.178 94.61,59.702 96.558,60.918C98.731,62.298 101.185,63.157 103.734,63.43C106.216,63.632 108.712,63.3 111.058,62.457C113.405,61.613 115.549,60.276 117.352,58.534C120.615,55.376 122.685,51.158 123.201,46.613C123.696,42.453 123.379,38.235 122.268,34.2C121.208,30.222 119.55,26.434 117.352,22.97C114.598,18.652 111.14,14.842 107.125,11.703C108.119,11.125 109.15,10.614 110.211,10.175C116.452,7.535 123.193,6.335 129.946,6.662C136.246,6.923 142.47,8.151 148.408,10.302C153.603,12.153 158.555,14.641 163.156,17.71C167.006,20.409 170.609,23.455 173.92,26.81C179.154,32.005 183.811,37.767 187.807,43.992C190.52,48.145 192.919,52.502 194.983,57.023C196.616,60.664 197.675,63.357 198.446,65.469C199.146,67.289 199.558,68.508 199.917,69.436L198.715,68.581C195.288,66.142 192.149,63.994 189.457,62.247C184.075,58.771 180.487,56.787 180.038,57.406C179.59,58.024 182.281,60.827 187.053,65.014C189.44,67.125 192.328,69.546 195.593,72.185L196.831,73.186C197.36,73.622 197.924,74.012 198.518,74.351C198.903,74.561 199.305,74.738 199.72,74.878C200.247,75.058 200.797,75.162 201.353,75.188C202.497,75.241 203.629,74.922 204.583,74.278C205.745,73.381 206.731,72.269 207.489,71.002L209.481,68.217C220.245,52.564 228.013,39.259 226.757,38.513C225.501,37.767 215.741,49.834 204.959,65.487L203.559,67.562C203.431,66.5 203.233,65.448 202.967,64.413C202.239,61.31 201.279,58.268 200.097,55.313C198.2,50.428 195.863,45.73 193.117,41.28C189.063,34.584 184.246,28.395 178.765,22.842C175.172,19.173 171.25,15.853 167.049,12.923C161.984,9.502 156.518,6.739 150.776,4.696C144.16,2.296 137.219,0.94 130.198,0.674C122.384,0.322 114.591,1.753 107.394,4.86C105.317,5.746 103.333,6.844 101.474,8.136C100.774,7.736 100.074,7.335 99.357,6.989C95.756,5.167 91.93,3.845 87.982,3.058C84.157,2.28 80.255,1.956 76.356,2.093C72.635,2.189 68.929,2.628 65.286,3.404C61.864,4.081 58.49,4.987 55.185,6.116C49.173,8.193 43.321,10.718 37.675,13.669C32.4,16.375 27.616,19.05 23.322,21.696C16.578,25.693 10.454,30.68 5.147,36.493C3.761,38.054 2.496,39.722 1.362,41.48C0.626,42.699 0.285,43.3 0.375,43.409C0.465,43.518 2.313,41.098 6.134,37.312L6.098,37.312ZM101.599,15.762C102.048,15.344 102.532,14.961 103.017,14.579C106.934,17.574 110.273,21.276 112.866,25.5C114.753,28.589 116.162,31.952 117.047,35.474C117.946,38.921 118.166,42.515 117.693,46.048C117.261,49.409 115.687,52.511 113.243,54.821C112.056,55.97 110.644,56.852 109.098,57.41C107.552,57.969 105.908,58.19 104.273,58.061C101.003,57.471 98.068,55.667 96.037,53.001C93.774,50.375 92.211,47.204 91.498,43.791C90.816,40.398 90.816,36.901 91.498,33.508C92.163,30.097 93.375,26.82 95.087,23.807C96.783,20.774 98.973,18.054 101.563,15.762Z" transform="rotate(-61.899 113.626 37.908)" fill="#4F1F3C" fill-opacity="0.3"/>
</svg>
