<svg width="186" height="266" viewBox="0 0 186 266" fill="none" xmlns="http://www.w3.org/2000/svg" xmlns:xlink="http://www.w3.org/1999/xlink">
<path d="M16.411,161.457C5.142,179.628 -0.051,199.916 0.328,216.854C0.434,224.478 1.55,232.026 3.629,239.178C5.158,244.622 7.281,249.764 9.935,254.454C11.641,257.454 13.585,260.22 15.738,262.708C17.272,264.37 18.113,265.148 18.219,265.04C18.324,264.932 15.212,261.288 11.26,253.462C5.839,242.512 3.061,229.772 3.271,216.826C3.271,200.746 8.737,181.584 19.816,164.486C25.663,155.435 32.569,147.589 40.293,141.223C48.723,134.207 58.163,129.397 68.064,127.073C78.484,124.688 89.211,125.787 99.199,130.262C104.703,132.682 109.833,136.31 114.357,140.982C110.573,142.724 106.599,144.493 102.563,146.61C97.711,149.043 93.119,152.249 88.898,156.151C84.503,160.289 80.872,165.604 78.26,171.722C75.553,177.91 74.046,184.833 73.863,191.914C73.68,198.995 74.827,206.03 77.209,212.432C79.988,219.586 84.644,225.276 90.37,228.512C93.587,230.272 97.108,230.936 100.587,230.442C103.901,229.896 107.092,228.492 109.963,226.314C112.568,224.384 115.012,222.12 117.258,219.56C119.477,217.086 121.544,214.398 123.439,211.52C125.337,208.716 127.045,205.712 128.548,202.542C130.073,199.394 131.355,196.064 132.374,192.599C133.405,189.145 134.111,185.546 134.476,181.879C134.925,178.217 134.995,174.496 134.686,170.811C134.075,163.406 132.102,156.289 128.926,150.041C128.061,148.313 127.121,146.649 126.109,145.056C127.959,144.091 129.788,143.072 131.554,141.974C139.184,137.206 145.912,130.385 151.273,121.981C155.667,115.056 159.212,107.32 161.785,99.04C165.611,86.447 167.592,73.067 167.629,59.563C167.729,50.6 167.293,41.641 166.326,32.763C165.611,25.768 164.854,20.542 164.224,16.682C163.74,13.627 163.32,11.322 162.962,9.661L163.992,10.92C165.389,12.479 166.911,13.845 168.533,14.994C171.187,16.867 174.011,18.316 176.943,19.309C181.883,20.944 185.037,21.078 185.352,20.14C185.667,19.202 182.913,17.218 178.688,14.458C176.289,12.94 173.971,11.221 171.75,9.312C170.528,8.264 169.382,7.08 168.323,5.775L166.62,3.497C166.263,3.041 165.885,2.559 165.401,2.049C164.831,1.441 164.202,0.928 163.53,0.522C162.697,0.028 161.789,-0.228 160.871,-0.228C159.952,-0.228 159.044,0.028 158.211,0.522C157.814,0.766 157.434,1.053 157.076,1.379C156.718,1.728 156.382,2.13 156.214,2.318L155.247,3.604C154.049,5.212 152.934,6.766 151.904,8.294C150.065,10.993 148.346,13.82 146.754,16.763C144.084,21.775 142.927,25.259 143.621,25.875C144.315,26.491 146.733,24.106 150.243,20.033C152.009,17.996 154.028,15.53 156.277,12.796L158.379,10.277C158.379,12.046 158.526,14.404 158.758,17.647C159.052,21.614 159.409,26.813 159.893,33.727C160.494,42.308 160.683,50.926 160.461,59.536C160.215,72.082 158.237,84.475 154.616,96.145C152.243,103.571 149.019,110.507 145.051,116.728C140.368,124.048 134.493,129.983 127.833,134.121C125.583,135.568 123.187,136.801 120.685,138.061C115.006,131.652 108.36,126.791 101.154,123.776C90.11,119.03 78.287,118.023 66.845,120.855C56.267,123.532 46.217,128.881 37.286,136.587C29.301,143.466 22.207,151.893 16.263,161.565L16.411,161.457ZM123.355,154.007C126.003,159.355 127.623,165.425 128.085,171.722C128.326,174.813 128.241,177.932 127.833,180.995C127.451,184.119 126.788,187.176 125.857,190.107C124.949,193.099 123.816,195.971 122.472,198.683C121.119,201.468 119.586,204.104 117.889,206.562C116.189,209.054 114.341,211.376 112.36,213.504C110.446,215.656 108.368,217.558 106.158,219.184C104.283,220.76 102.133,221.724 99.898,221.996C97.662,222.266 95.409,221.836 93.334,220.74C89.192,218.272 85.844,214.06 83.853,208.814C82.84,206.282 82.131,203.572 81.75,200.774C81.327,197.949 81.186,195.067 81.33,192.197C81.597,186.526 82.842,180.999 84.975,176.011C87.107,171.022 90.076,166.694 93.67,163.333C97.385,159.967 101.409,157.195 105.653,155.079C110.363,152.613 115.24,150.55 120.033,148.352C121.242,150.164 122.352,152.081 123.355,154.087Z" transform="rotate(43.172 92.843 132.411)" fill="#FF698D"/>
</svg>
