<svg width="40" height="38" viewBox="0 0 40 38" fill="none" xmlns="http://www.w3.org/2000/svg" xmlns:xlink="http://www.w3.org/1999/xlink">
<path d="M19.776,0.829C15.982,0.829 12.273,1.861 9.118,3.793C5.963,5.726 3.505,8.473 2.053,11.687C0.601,14.9 0.221,18.437 0.961,21.848C1.701,25.26 3.528,28.394 6.211,30.853C8.894,33.313 12.312,34.988 16.034,35.667C19.755,36.346 23.612,35.997 27.118,34.666C30.623,33.335 33.619,31.081 35.727,28.188C37.835,25.296 38.96,21.896 38.96,18.417C38.96,16.107 38.464,13.82 37.5,11.687C36.536,9.553 35.123,7.614 33.341,5.981C31.56,4.348 29.445,3.052 27.118,2.168C24.79,1.284 22.296,0.829 19.776,0.829L19.776,0.829ZM28.812,14.39L17.302,24.942C17.123,25.107 16.911,25.238 16.677,25.327C16.444,25.416 16.193,25.462 15.94,25.462C15.686,25.462 15.436,25.416 15.202,25.327C14.968,25.238 14.756,25.107 14.577,24.942L10.741,21.425C10.562,21.261 10.42,21.066 10.323,20.852C10.226,20.637 10.176,20.408 10.176,20.176C10.176,19.944 10.226,19.714 10.323,19.5C10.42,19.286 10.562,19.091 10.741,18.927C10.92,18.763 11.132,18.633 11.366,18.544C11.599,18.456 11.85,18.41 12.103,18.41C12.356,18.41 12.606,18.456 12.84,18.544C13.074,18.633 13.286,18.763 13.465,18.927L15.94,21.214L26.088,11.892C26.449,11.561 26.939,11.375 27.45,11.375C27.961,11.375 28.451,11.561 28.812,11.892C29.173,12.223 29.376,12.672 29.376,13.141C29.376,13.609 29.173,14.058 28.812,14.39L28.812,14.39Z" fill="#CED1E5"/>
</svg>
