<svg width="42" height="46" viewBox="0 0 42 46" fill="none" xmlns="http://www.w3.org/2000/svg" xmlns:xlink="http://www.w3.org/1999/xlink">
<g opacity="0.4">
<path d="M18.973,4.119C20.149,3.011 22.075,3.011 23.268,4.119L25.961,6.673C26.472,7.161 27.426,7.556 28.108,7.556L31.005,7.556C32.812,7.556 34.295,9.189 34.295,11.18L34.295,14.373C34.295,15.105 34.653,16.176 35.096,16.739L37.413,19.706C38.419,21.002 38.419,23.124 37.413,24.439L35.096,27.406C34.653,27.969 34.295,29.021 34.295,29.772L34.295,32.965C34.295,34.955 32.812,36.589 31.005,36.589L28.108,36.589C27.443,36.589 26.472,36.984 25.961,37.472L23.268,40.026C22.092,41.134 20.166,41.134 18.973,40.026L16.28,37.472C15.769,36.984 14.815,36.589 14.133,36.589L11.185,36.589C9.378,36.589 7.895,34.955 7.895,32.965L7.895,29.753C7.895,29.021 7.538,27.969 7.111,27.406L4.811,24.42C3.822,23.124 3.822,21.021 4.811,19.725L7.111,16.739C7.538,16.176 7.895,15.124 7.895,14.391L7.895,11.161C7.895,9.171 9.378,7.537 11.185,7.537L14.133,7.537C14.798,7.537 15.769,7.142 16.28,6.654L18.973,4.119Z" fill="#FB3F6C"/>
</g>
<path d="M19.042,28.007C18.701,28.007 18.377,27.857 18.138,27.594L14.014,23.049C13.52,22.504 13.52,21.603 14.014,21.058C14.508,20.514 15.326,20.514 15.821,21.058L19.042,24.608L26.37,16.532C26.864,15.988 27.682,15.988 28.176,16.532C28.671,17.077 28.671,17.979 28.176,18.523L19.945,27.594C19.706,27.857 19.382,28.007 19.042,28.007Z" fill="#FB3F6C"/>
</svg>
